<svg xmlns="http://www.w3.org/2000/svg" fill="none" viewBox="0 0 374 200" class="size-full"><path fill="#F6F5F5" d="M287 40c8.837 0 16 7.163 16 16v37.402h-.082c-7.18 0-13 5.82-13 13s5.82 13 13 13l.082-.001V160c0 8.837-7.163 16-16 16H103V40z"></path><path fill="#0CD25F" fill-rule="evenodd" d="M86 40c-8.837 0-16 7.163-16 16v37c7.18 0 13 5.82 13 13s-5.82 13-13 13v41c0 8.837 7.163 16 16 16h22V40z" clip-rule="evenodd"></path><path stroke="#077535" stroke-linecap="round" stroke-linejoin="round" stroke-width="10" d="m212.6 80.12-6.336 4.745a3.536 3.536 0 0 0-.711 4.949l.157.209a3.535 3.535 0 0 0 4.949.71l6.336-4.745a3.536 3.536 0 0 0 .711-4.95l-.157-.208a3.535 3.535 0 0 0-4.949-.71M185.219 85.993l6.336 4.746a3.536 3.536 0 0 0 4.95-.711l.156-.209a3.536 3.536 0 0 0-.71-4.95l-6.337-4.744a3.535 3.535 0 0 0-4.949.71l-.156.209a3.535 3.535 0 0 0 .71 4.95"></path><path fill="#077535" d="M201.113 97.65c5.283 0 9.566-4.284 9.566-9.568s-4.283-9.566-9.566-9.566a9.567 9.567 0 0 0-9.567 9.566 9.567 9.567 0 0 0 9.567 9.567"></path><path fill="#0CD25F" d="M228.632 97.65h-55.046c-2.293 0-4.152 1.88-4.152 4.198v36.603c0 2.318 1.859 4.198 4.152 4.198h55.046c2.294 0 4.153-1.88 4.153-4.198v-36.603c0-2.319-1.859-4.198-4.153-4.198"></path><path fill="#085F2E" d="M209.445 97.65h-16.672v44.999h16.672z"></path><path fill="#36F285" d="M234.087 88.083h-65.953A3.134 3.134 0 0 0 165 91.216v12.07a3.134 3.134 0 0 0 3.134 3.134h65.953a3.134 3.134 0 0 0 3.134-3.134v-12.07a3.134 3.134 0 0 0-3.134-3.133"></path><path fill="#077535" d="M209.473 88.083H192.75v18.337h16.723z"></path><path fill="#006C8D" d="m262.127 60.708-2.984 6.707a1.2 1.2 0 0 1-.484.552l-5.054 2.926c-.773.445-.812 1.68-.078 2.192l5.202 3.617c.164.115.297.272.391.462l3.022 6.188c.422.857 1.5.865 1.929.017l3.156-6.238a1.24 1.24 0 0 1 .351-.429l4.921-3.65c.703-.52.656-1.698-.078-2.16l-4.764-2.941a1.2 1.2 0 0 1-.453-.52l-3.109-6.756c-.414-.907-1.562-.898-1.968.016zM141.758 136.59l-2.537 5.589c-.092.2-.232.357-.411.46l-4.296 2.438c-.657.371-.69 1.401-.066 1.827l4.422 3.014q.21.147.332.385l2.569 5.157c.358.714 1.275.721 1.64.014l2.682-5.198a1 1 0 0 1 .299-.358l4.182-3.042c.598-.432.558-1.414-.066-1.799l-4.05-2.451a1 1 0 0 1-.385-.433l-2.642-5.631c-.352-.755-1.328-.748-1.673.014z"></path></svg>