<svg width="264" height="275" viewBox="0 0 264 275" fill="none" xmlns="http://www.w3.org/2000/svg">
<path d="M115.472 7.724C123.875 -2.57465 139.611 -2.57463 148.014 7.72402L157.967 19.9225C163.175 26.3052 171.633 29.0535 179.598 26.9509L194.82 22.9324C207.672 19.5397 220.403 28.7893 221.147 42.0602L222.03 57.7793C222.491 66.004 227.719 73.1993 235.398 76.1799L250.076 81.8763C262.467 86.6855 267.33 101.652 260.132 112.826L251.606 126.061C247.145 132.986 247.145 141.88 251.606 148.806L260.132 162.041C267.33 173.215 262.467 188.181 250.076 192.99L235.398 198.687C227.719 201.667 222.491 208.863 222.03 217.087L221.147 232.807C220.403 246.077 207.672 255.327 194.82 251.934L179.598 247.916C171.633 245.813 163.175 248.562 157.967 254.944L148.014 267.143C139.611 277.441 123.875 277.441 115.472 267.143L105.519 254.944C100.311 248.562 91.8521 245.813 83.8873 247.916L68.665 251.934C55.8135 255.327 43.0826 246.077 42.3379 232.807L41.4558 217.087C40.9942 208.863 35.7665 201.667 28.0869 198.687L13.4098 192.99C1.01854 188.181 -3.84421 173.215 3.35373 162.041L11.8795 148.806C16.3405 141.88 16.3405 132.986 11.8795 126.061L3.35372 112.826C-3.84422 101.652 1.01855 86.6855 13.4098 81.8763L28.087 76.1798C35.7665 73.1993 40.9942 66.004 41.4558 57.7793L42.3379 42.0602C43.0826 28.7893 55.8135 19.5398 68.665 22.9324L83.8873 26.9509C91.8522 29.0535 100.311 26.3052 105.519 19.9225L115.472 7.724Z" fill="white"/>
</svg>
