<svg width="63" height="63" viewBox="0 0 63 63" fill="none" xmlns="http://www.w3.org/2000/svg">
<path fill-rule="evenodd" clip-rule="evenodd" d="M22.5288 41.3337C22.3253 40.8434 21.9352 40.4542 21.4445 40.2517L4.48066 33.2521C2.83113 32.5715 2.83113 30.2351 4.48067 29.5545L21.4445 22.555C21.9352 22.3525 22.3253 21.9632 22.5288 21.473L29.5562 4.54462C30.2387 2.90036 32.5679 2.90036 33.2505 4.54462L40.2778 21.473C40.4814 21.9632 40.8714 22.3525 41.3622 22.555L58.326 29.5545C59.9755 30.2351 59.9755 32.5715 58.326 33.2521L41.3622 40.2517C40.8714 40.4542 40.4814 40.8434 40.2778 41.3337L33.2505 58.262C32.5679 59.9063 30.2387 59.9063 29.5562 58.262L22.5288 41.3337Z" fill="white"/>
</svg>
