<svg width="173" height="40" viewBox="0 0 173 40" fill="none" xmlns="http://www.w3.org/2000/svg">
<g clip-path="url(#clip0_245_231)">
<path d="M150.377 23.9357C148.186 23.9357 146.744 22.1008 146.744 19.8788C146.744 17.6569 148.104 15.7656 150.349 15.7656C152.595 15.7656 154.065 17.6554 154.065 19.8788C154.065 22.1023 152.624 23.9357 150.378 23.9357M156.171 11.7072C155.312 11.7072 154.895 12.041 154.34 12.7085C154.064 13.0423 153.731 12.9584 153.398 12.6811C152.428 11.8474 151.263 11.4299 149.711 11.4299C145.219 11.4299 142.031 14.932 142.031 19.8499C142.031 24.4904 144.887 28.215 149.683 28.215C151.236 28.215 152.4 27.8264 153.399 26.9638C153.676 26.7139 154.036 26.5752 154.342 26.9364C154.897 27.6039 155.312 27.9361 156.172 27.9361C157.614 27.9361 158.584 27.0187 158.584 25.4353V14.2081C158.584 12.6247 157.614 11.7072 156.172 11.7072" fill="white"/>
<path d="M168.371 7.34408V25.5191C168.371 28.8536 173 28.8536 173 25.5191V7.34408C173 4.0096 168.371 4.0096 168.371 7.34408Z" fill="white"/>
<path d="M161.162 7.30086V25.4759C161.162 28.8104 165.792 28.8104 165.792 25.4759V7.30086C165.792 3.96639 161.162 3.96639 161.162 7.30086Z" fill="white"/>
<path d="M139.176 22.4346C137.513 22.4346 136.93 23.9357 134.823 23.9357C132.578 23.9357 130.998 22.2684 130.998 19.8499C130.998 17.4313 132.578 15.7641 134.852 15.7641C136.903 15.7641 137.485 17.154 138.761 17.154C139.842 17.154 140.812 16.1542 140.812 15.0691C140.812 14.3468 140.368 13.5955 139.564 12.9569C138.344 11.9846 136.57 11.4284 134.656 11.4284C129.804 11.4284 126.256 15.0691 126.256 19.9048C126.256 24.3228 129.195 28.2135 134.767 28.2135C137.318 28.2135 141.116 26.7413 141.116 24.3228C141.116 23.3215 140.45 22.433 139.175 22.433" fill="white"/>
<path d="M117.994 28.215C122.292 28.215 124.869 26.214 124.869 22.9619C124.869 20.1273 122.928 18.8761 120.517 18.1537L117.883 17.3749C116.83 17.0686 116.497 16.7913 116.497 16.3188C116.497 15.7626 116.995 15.3739 117.967 15.3739C118.853 15.3739 119.768 15.6513 120.629 16.1801C121.905 16.9589 123.04 16.709 123.679 15.6803C124.345 14.6241 124.067 13.4842 122.847 12.6506C121.794 11.9282 119.965 11.4284 118.245 11.4284C114.973 11.4284 111.923 13.1794 111.923 16.5413C111.923 19.126 113.698 20.7094 116.249 21.4607L118.966 22.2669C119.992 22.5732 120.352 22.8232 120.352 23.2956C120.352 23.9342 119.743 24.2969 118.467 24.2969C117.191 24.2969 115.861 23.9357 114.946 23.2956C113.754 22.462 112.728 22.5458 112.007 23.3794C111.092 24.4356 111.592 25.6304 112.395 26.4365C113.587 27.6039 115.639 28.215 117.996 28.215" fill="white"/>
<path d="M79.0055 28.0215C80.1427 28.0215 81.3074 27.1879 81.3074 25.5206V19.4902C81.3074 16.9894 82.25 15.7671 84.1079 15.7671C85.9658 15.7671 86.8522 17.0458 86.8522 18.9355V25.5222C86.8522 27.1056 87.8785 28.023 89.1814 28.023C90.4844 28.023 91.4833 27.1056 91.4833 25.5222V18.5743C91.4833 14.2386 88.9047 11.4329 85.2999 11.4329C83.9133 11.4329 82.7487 11.8505 81.8334 12.5729C81.4731 12.8502 81.3074 12.7116 81.3074 12.2955V7.34865C81.3074 5.68141 80.1427 4.84779 79.0055 4.84779C77.8683 4.84779 76.6763 5.68141 76.6763 7.34865V25.5237C76.6763 27.1909 77.8409 28.0245 79.0055 28.0245" fill="white"/>
<path d="M98.3355 19.8392C98.3355 21.0173 98.6943 21.9987 99.38 22.7516C100.066 23.5044 100.979 23.8976 102.057 23.8976C103.135 23.8976 104.049 23.5044 104.735 22.7516C105.42 21.9987 105.779 21.0173 105.779 19.8392C105.779 18.6612 105.42 17.6797 104.735 16.9269C104.049 16.174 103.135 15.7809 102.057 15.7809C100.979 15.7809 100.066 16.174 99.38 16.9269C98.6943 17.6797 98.3355 18.6612 98.3355 19.8392ZM93.6025 19.8392C93.6025 17.4511 94.419 15.4547 96.0184 13.8515C97.6498 12.2483 99.675 11.4299 102.057 11.4299C104.44 11.4299 106.465 12.2483 108.064 13.8515C109.697 15.4547 110.512 17.4511 110.512 19.8392C110.512 22.2273 109.696 24.2237 108.096 25.827C106.497 27.4302 104.473 28.215 102.057 28.215C99.6415 28.215 97.6179 27.4302 96.0184 25.827C94.419 24.2237 93.6025 22.2273 93.6025 19.8392Z" fill="white"/>
<path d="M72.0708 11.5396C70.9548 11.5396 69.9772 12.2117 69.6701 13.5254L68.1634 19.9047C68.1071 20.1288 67.9399 20.1852 67.8 20.1852C67.6054 20.1852 67.4366 20.1013 67.3819 19.9047L65.7353 13.9734C65.261 12.2665 64.1161 11.5396 62.5258 11.5396C60.7956 11.5396 59.6781 12.3793 59.2326 14.0572L57.6697 19.9047C57.6134 20.1288 57.3899 20.1852 57.2516 20.1852C57.0843 20.1852 56.8608 20.1288 56.8046 19.9047L55.269 13.5254C54.9345 12.1263 53.9843 11.567 52.9519 11.567C51.6125 11.567 50.5786 12.4906 50.5786 13.7494C50.5786 14.0298 50.6349 14.4215 50.6896 14.6165L53.8155 25.641C54.3461 27.4591 55.2675 28.215 56.9703 28.215C58.6731 28.215 59.7891 27.5155 60.3197 25.641L62.2339 18.8822C62.3175 18.588 62.7326 18.588 62.8162 18.8822L64.7304 25.641C65.2321 27.3753 66.2659 28.215 68.0235 28.215C69.6701 28.215 70.7313 27.4591 71.233 25.641L74.2753 14.6165C74.3589 14.3087 74.3863 14.1136 74.3863 13.8896C74.3863 12.4631 73.3813 11.5396 72.0692 11.5396" fill="white"/>
<path d="M15.6493 28.215C17.7003 28.215 19.4016 26.6408 20.659 23.7498C21.9163 26.6408 23.6161 28.215 25.6687 28.215C30.955 28.215 32.8221 19.2296 31.9904 14.4306C31.621 12.3001 30.5491 11.4284 29.2917 11.4284C28.2381 11.4284 27.0188 12.0395 27.2027 14.17C27.8124 21.191 26.2236 23.7482 24.91 23.7482C23.9856 23.7482 23.0612 22.4696 22.4333 20.618C23.3942 19.2098 23.7454 18.2832 23.7454 17.1905C23.7454 15.3008 22.5443 14.0968 20.659 14.0968C18.7737 14.0968 17.5726 15.3008 17.5726 17.1905C17.5726 18.2832 17.9238 19.2098 18.8847 20.618C18.2568 22.4711 17.3324 23.7482 16.408 23.7482C15.0959 23.7482 13.5056 21.191 14.1152 14.17C14.3007 12.0395 13.0799 11.4284 12.0262 11.4284C10.7689 11.4284 9.69701 12.2985 9.32756 14.4306C8.49591 19.2296 10.3629 28.215 15.6493 28.215ZM13.5117 40C15.6691 40 16.7866 38.9774 17.6486 37.9563C18.158 37.3467 18.2963 37.0922 18.7463 37.0922C19.1584 37.0922 21.6883 37.3086 23.4717 37.3086C33.6887 37.3086 41.3165 30.1932 41.3165 18.969C41.318 7.1551 32.8859 0 20.9828 0C9.07974 0 0 7.25264 0 19.3028C0 29.6613 6.66689 40.0015 13.5117 40.0015M13.5117 36.1276C9.35493 36.1276 3.84353 27.8523 3.84353 19.3013C3.84353 9.49289 11.0988 3.85111 20.9235 3.85111C30.1401 3.85111 37.4744 8.80405 37.4744 18.9081C37.4744 27.6359 32.0223 33.4347 23.2376 33.4347C22.2174 33.4347 21.9832 33.3554 21.296 33.3554C21.0604 33.3554 20.8642 33.3356 20.551 33.3158C19.9231 33.2762 18.4529 33.2167 18.0211 33.2167C16.7653 33.2167 16.4718 33.6892 15.7664 34.5929C14.9028 35.6932 14.4528 36.126 13.5117 36.126" fill="white"/>
</g>
<defs>
<clipPath id="clip0_245_231">
<rect width="173" height="40" fill="white"/>
</clipPath>
</defs>
</svg>
