<svg width="333" height="77" viewBox="0 0 333 77" fill="none" xmlns="http://www.w3.org/2000/svg">
<g clip-path="url(#clip0_252_666)">
<path d="M289.453 46.0761C285.236 46.0761 282.462 42.544 282.462 38.2667C282.462 33.9894 285.078 30.3487 289.401 30.3487C293.723 30.3487 296.553 33.9865 296.553 38.2667C296.553 42.5469 293.779 46.0761 289.456 46.0761M300.606 22.5364C298.953 22.5364 298.151 23.1788 297.083 24.4638C296.55 25.1063 295.909 24.9449 295.268 24.411C293.401 22.8063 291.159 22.0024 288.172 22.0024C279.527 22.0024 273.39 28.744 273.39 38.211C273.39 47.144 278.886 54.3139 288.119 54.3139C291.107 54.3139 293.349 53.5658 295.271 51.9053C295.804 51.4242 296.497 51.1572 297.086 51.8525C298.154 53.1375 298.953 53.777 300.609 53.777C303.384 53.777 305.251 52.0109 305.251 48.9629V27.3505C305.251 24.3024 303.384 22.5364 300.609 22.5364" fill="#0CD25F"/>
<path d="M324.089 14.1374V49.1243C324.089 55.5432 333 55.5432 333 49.1243V14.1374C333 7.71853 324.089 7.71853 324.089 14.1374Z" fill="#0CD25F"/>
<path d="M310.214 14.1374V49.1243C310.214 55.5432 319.125 55.5432 319.125 49.1243V14.1374C319.125 7.71853 310.214 7.71853 310.214 14.1374Z" fill="#0CD25F"/>
<path d="M267.894 43.1865C264.692 43.1865 263.571 46.0761 259.515 46.0761C255.192 46.0761 252.152 42.8667 252.152 38.211C252.152 33.5552 255.192 30.3458 259.57 30.3458C263.518 30.3458 264.639 33.0213 267.095 33.0213C269.175 33.0213 271.042 31.0968 271.042 29.008C271.042 27.6175 270.188 26.1712 268.64 24.942C266.293 23.0703 262.877 21.9995 259.193 21.9995C249.854 21.9995 243.024 29.008 243.024 38.3166C243.024 46.8213 248.681 54.3109 259.407 54.3109C264.317 54.3109 271.628 51.477 271.628 46.8213C271.628 44.8939 270.346 43.1835 267.891 43.1835" fill="#0CD25F"/>
<path d="M227.121 54.3139C235.394 54.3139 240.355 50.462 240.355 44.2015C240.355 38.7449 236.618 36.3364 231.976 34.9458L226.908 33.4467C224.879 32.857 224.239 32.3231 224.239 31.4137C224.239 30.3429 225.198 29.5948 227.069 29.5948C228.775 29.5948 230.536 30.1287 232.193 31.1467C234.648 32.6458 236.834 32.1647 238.063 30.1844C239.345 28.1514 238.81 25.957 236.463 24.3523C234.435 22.9618 230.914 21.9995 227.604 21.9995C221.306 21.9995 215.436 25.3703 215.436 31.842C215.436 36.8175 218.851 39.8656 223.762 41.3119L228.991 42.8638C230.967 43.4534 231.66 43.9346 231.66 44.844C231.66 46.0732 230.487 46.7714 228.031 46.7714C225.576 46.7714 223.015 46.0761 221.254 44.844C218.959 43.2393 216.984 43.4006 215.597 45.0053C213.835 47.0384 214.798 49.3384 216.343 50.8903C218.637 53.1375 222.588 54.3139 227.124 54.3139" fill="#0CD25F"/>
<path d="M152.074 53.9414C154.263 53.9414 156.505 52.3367 156.505 49.1273V37.5187C156.505 32.7046 158.319 30.3518 161.895 30.3518C165.471 30.3518 167.178 32.8131 167.178 36.4509V49.1302C167.178 52.1783 169.153 53.9443 171.661 53.9443C174.169 53.9443 176.092 52.1783 176.092 49.1302V35.7556C176.092 27.4093 171.128 22.0084 164.19 22.0084C161.521 22.0084 159.279 22.8122 157.517 24.2028C156.823 24.7367 156.505 24.4698 156.505 23.6689V14.1462C156.505 10.9367 154.263 9.33203 152.074 9.33203C149.885 9.33203 147.59 10.9367 147.59 14.1462V49.1331C147.59 52.3425 149.832 53.9473 152.074 53.9473" fill="#0CD25F"/>
<path d="M189.282 38.1904C189.282 40.4581 189.972 42.3474 191.292 43.7967C192.612 45.2459 194.371 46.0028 196.446 46.0028C198.521 46.0028 200.279 45.2459 201.599 43.7967C202.919 42.3474 203.61 40.4581 203.61 38.1904C203.61 35.9227 202.919 34.0334 201.599 32.5842C200.279 31.135 198.521 30.3781 196.446 30.3781C194.371 30.3781 192.612 31.135 191.292 32.5842C189.972 34.0334 189.282 35.9227 189.282 38.1904ZM180.171 38.1904C180.171 33.5934 181.743 29.7503 184.822 26.664C187.962 23.5778 191.86 22.0024 196.446 22.0024C201.032 22.0024 204.93 23.5778 208.008 26.664C211.152 29.7503 212.72 33.5934 212.72 38.1904C212.72 42.7875 211.149 46.6306 208.07 49.7168C204.991 52.803 201.096 54.3139 196.446 54.3139C191.796 54.3139 187.9 52.803 184.822 49.7168C181.743 46.6306 180.171 42.7875 180.171 38.1904Z" fill="#0CD25F"/>
<path d="M138.726 22.2136C136.578 22.2136 134.696 23.5074 134.105 26.0362L131.205 38.3165C131.096 38.7478 130.774 38.8563 130.505 38.8563C130.131 38.8563 129.806 38.695 129.7 38.3165L126.531 26.8987C125.618 23.613 123.414 22.2136 120.353 22.2136C117.023 22.2136 114.872 23.8301 114.014 27.06L111.006 38.3165C110.897 38.7478 110.467 38.8563 110.201 38.8563C109.879 38.8563 109.449 38.7478 109.341 38.3165L106.385 26.0362C105.741 23.3431 103.912 22.2664 101.925 22.2664C99.3465 22.2664 97.3564 24.0442 97.3564 26.4674C97.3564 27.0072 97.4647 27.7612 97.5701 28.1367L103.587 49.3589C104.608 52.8587 106.382 54.3138 109.66 54.3138C112.937 54.3138 115.085 52.9673 116.107 49.3589L119.791 36.348C119.952 35.7818 120.751 35.7818 120.912 36.348L124.596 49.3589C125.562 52.6974 127.552 54.3138 130.935 54.3138C134.105 54.3138 136.147 52.8587 137.113 49.3589L142.969 28.1367C143.13 27.5441 143.183 27.1686 143.183 26.7373C143.183 23.9914 141.248 22.2136 138.723 22.2136" fill="#0CD25F"/>
<path d="M30.1227 54.3139C34.0706 54.3139 37.3453 51.2835 39.7656 45.7183C42.1858 51.2835 45.4576 54.3139 49.4085 54.3139C59.584 54.3139 63.1777 37.017 61.5769 27.7789C60.8658 23.6776 58.8026 21.9996 56.3823 21.9996C54.3543 21.9996 52.0072 23.176 52.3613 27.2773C53.5348 40.7927 50.4766 45.7154 47.9481 45.7154C46.1688 45.7154 44.3895 43.254 43.1808 39.6896C45.0304 36.9789 45.7064 35.1952 45.7064 33.0918C45.7064 29.454 43.3945 27.1364 39.7656 27.1364C36.1367 27.1364 33.8247 29.454 33.8247 33.0918C33.8247 35.1952 34.5008 36.9789 36.3503 39.6896C35.1417 43.2569 33.3623 45.7154 31.583 45.7154C29.0574 45.7154 25.9963 40.7927 27.1698 27.2773C27.5269 23.176 25.1769 21.9996 23.1488 21.9996C20.7285 21.9996 18.6653 23.6747 17.9542 27.7789C16.3534 37.017 19.9472 54.3139 30.1227 54.3139ZM26.008 77C30.1607 77 32.3117 75.0315 33.9711 73.0659C34.9514 71.8925 35.2178 71.4026 36.084 71.4026C36.8771 71.4026 41.7468 71.8191 45.1796 71.8191C64.8458 71.8191 79.5282 58.1218 79.5282 36.5154C79.5311 13.7736 63.3006 0 40.3889 0C17.4772 0 0 13.9613 0 37.1578C0 57.098 12.8328 77.0029 26.008 77.0029M26.008 69.5455C18.0069 69.5455 7.39824 53.6157 7.39824 37.1549C7.39824 18.2738 21.3636 7.41338 40.2748 7.41338C58.0153 7.41338 72.1329 16.9478 72.1329 36.398C72.1329 53.1991 61.6384 64.3618 44.7289 64.3618C42.7652 64.3618 42.3146 64.2092 40.9918 64.2092C40.5382 64.2092 40.1606 64.1711 39.5578 64.1329C38.3491 64.0566 35.5192 63.9422 34.688 63.9422C32.2707 63.9422 31.7059 64.8517 30.348 66.5913C28.6858 68.7094 27.8195 69.5426 26.008 69.5426" fill="#0CD25F"/>
</g>
<defs>
<clipPath id="clip0_252_666">
<rect width="333" height="77" fill="white"/>
</clipPath>
</defs>
</svg>
